<svg width="64" height="64" viewBox="0 0 64 64" fill="none" xmlns="http://www.w3.org/2000/svg">
<path d="M32 0C25.548 0 19.9435 4.53238 18.4375 10.7322C15.9435 11.7023 13.8745 13.6855 12.8125 16.1297C5.8185 15.6095 0 21.1943 0 28.1172C0 34.7628 5.382 40.1674 12 40.1674H24V36.1506H12C7.588 36.1506 4 32.5476 4 28.1172C4 23.6867 7.588 20.0837 12 20.0837C12.554 20.0837 13.118 20.1294 13.75 20.272L15.75 20.7113L16.125 18.7657C16.617 16.5444 18.411 14.7771 20.625 14.2469L21.9375 13.9331L22.125 12.6151C22.843 7.7287 27.086 4.01674 32 4.01674C35.788 4.01674 39.2235 6.13155 40.9375 9.53975L41.6875 11.1088L43.375 10.5439C44.309 10.2146 45.164 10.0418 46 10.0418C50.412 10.0418 54 13.6449 54 18.0753C54 18.1516 54.01 18.252 54 18.3264C53.982 18.4629 53.9495 18.5623 53.9375 18.7029L53.8125 20.1464L55.125 20.7113C58.079 21.9766 60 24.8937 60 28.1172C60 32.5476 56.412 36.1506 52 36.1506H44V40.1674H52C58.618 40.1674 64 34.7628 64 28.1172C64 23.769 61.69 19.8336 58 17.6987C57.79 11.2378 52.484 6.0251 46 6.0251C45.222 6.0251 44.417 6.10544 43.625 6.27615C41.045 2.36586 36.744 0 32 0ZM32 30.1255V34.6444L28.0625 32.3849L26.0625 35.8996L29.9375 38.159L26.0625 40.4184L28.0625 43.9331L32 41.6736V46.1925H36V41.6736L39.9375 43.9331L41.9375 40.4184L38.0625 38.159L41.9375 35.8996L39.9375 32.3849L36 34.6444V30.1255H32Z" fill="#D0E2FE"/>
<path d="M15.125 47.7936V52.3124L11.1875 50.053L9.1875 53.5676L13.0625 55.8271L9.1875 58.0865L11.1875 61.6011L15.125 59.3417V63.8605H19.125V59.3417L23.0625 61.6011L25.0625 58.0865L21.1875 55.8271L25.0625 53.5676L23.0625 50.053L19.125 52.3124V47.7936H15.125Z" fill="#D0E2FE"/>
<path d="M46.0625 46.1925V50.7113L42.125 48.4519L40.125 51.9665L44 54.2259L40.125 56.4854L42.125 60L46.0625 57.7406V62.2594H50.0625V57.7406L54 60L56 56.4854L52.125 54.2259L56 51.9665L54 48.4519L50.0625 50.7113V46.1925H46.0625Z" fill="#D0E2FE"/>
</svg>
