<svg width="372" height="298" viewBox="0 0 372 298" fill="none" xmlns="http://www.w3.org/2000/svg">
<path d="M84.165 176.379C58.7644 150.949 58.7644 109.633 84.165 84.2617C109.566 58.8319 150.834 58.8319 176.235 84.2617C181.873 89.9063 186.058 96.4238 189.197 103.29C194.893 101.137 200.88 99.7989 207.041 98.926L224.363 47.1935C226.688 40.2687 220.119 33.7512 213.202 36.0207L162.169 53.0709L138.047 4.88811C134.85 -1.62937 125.55 -1.62937 122.295 4.88811L98.2313 53.0709L47.1394 36.0207C40.2806 33.7512 33.7125 40.3269 35.9794 47.1935L53.01 98.2859L4.8825 122.435C-1.6275 125.694 -1.6275 134.947 4.8825 138.205L53.01 162.297L35.9794 213.389C33.6544 220.314 40.2225 226.831 47.1394 224.562L91.3725 209.84C94.9181 202.624 99.51 196.048 105.09 190.345C97.4756 187.203 90.3263 182.548 84.165 176.379ZM81.375 130.291C81.375 154.034 98.4056 173.819 120.842 178.183C125.492 175.448 130.316 173.062 135.489 171.375C138.628 145.596 153.508 123.367 174.666 110.273C166.993 93.3396 149.962 81.4685 130.2 81.4685C103.288 81.4685 81.375 103.349 81.375 130.291Z" fill="#FFC107"/>
<path d="M84.165 176.379C58.7644 150.949 58.7644 109.633 84.165 84.2617C109.566 58.8319 150.834 58.8319 176.235 84.2617C181.873 89.9063 186.058 96.4238 189.197 103.29C194.893 101.137 200.88 99.7989 207.041 98.926L224.363 47.1935C226.688 40.2687 220.119 33.7512 213.202 36.0207L162.169 53.0709L138.047 4.88811C134.85 -1.62937 125.55 -1.62937 122.295 4.88811L98.2313 53.0709L47.1394 36.0207C40.2806 33.7512 33.7125 40.3269 35.9794 47.1935L53.01 98.2859L4.8825 122.435C-1.6275 125.694 -1.6275 134.947 4.8825 138.205L53.01 162.297L35.9794 213.389C33.6544 220.314 40.2225 226.831 47.1394 224.562L91.3725 209.84C94.9181 202.624 99.51 196.048 105.09 190.345C97.4756 187.203 90.3263 182.548 84.165 176.379ZM81.375 130.291C81.375 154.034 98.4056 173.819 120.842 178.183C125.492 175.448 130.316 173.062 135.489 171.375C138.628 145.596 153.508 123.367 174.666 110.273C166.993 93.3396 149.962 81.4685 130.2 81.4685C103.288 81.4685 81.375 103.349 81.375 130.291Z" fill="#FFC107"/>
<path d="M334.035 189.089C334.151 187.983 334.5 186.936 334.5 185.83C334.5 165.288 317.818 148.587 297.3 148.587C289.976 148.587 283.234 150.799 277.479 154.407C267.249 131.828 244.639 116 218.25 116C182.329 116 153.15 145.154 153.15 181.175C153.15 182.921 153.557 184.55 153.673 186.237C124.843 188.391 102 212.249 102 241.694C102 272.536 126.994 297.558 157.8 297.558H315.9C346.706 297.558 371.7 272.536 371.7 241.694C371.7 217.195 355.89 196.654 334.035 189.089Z" fill="#D0E2FE"/>
<path d="M334.035 189.089C334.151 187.983 334.5 186.936 334.5 185.83C334.5 165.288 317.818 148.587 297.3 148.587C289.976 148.587 283.234 150.799 277.479 154.407C267.249 131.828 244.639 116 218.25 116C182.329 116 153.15 145.154 153.15 181.175C153.15 182.921 153.557 184.55 153.673 186.237C124.843 188.391 102 212.249 102 241.694C102 272.536 126.994 297.558 157.8 297.558H315.9C346.706 297.558 371.7 272.536 371.7 241.694C371.7 217.195 355.89 196.654 334.035 189.089Z" fill="#D0E2FE"/>
</svg>
