<svg width="181" height="275" viewBox="0 0 181 275" fill="none" xmlns="http://www.w3.org/2000/svg">
<path d="M1.38814 252C2.38814 248 4.38814 242 8.24171 241.497C12.0953 240.994 24.9742 248.298 33.9461 249.834L24.4555 202.4C23.9562 199.914 25.4928 197.473 27.9476 196.839L78.1438 185.092L93.0001 5.5C94.1124 1.00029 100.5 0.5 106.5 0.5C109.129 0.72862 119.112 2.00029 118.5 7.5L117.388 28.4999C166.396 79.495 175.689 132.191 180.083 208.003C180 210 179.216 211.599 177.586 212.482C176.871 212.868 176.088 213.058 175.309 213.058C174.307 213.058 172 214 166.5 211C136.482 188.84 128.089 186.908 115.5 188L105.888 191L131.976 205.935C134.286 206.985 135.372 209.658 134.447 212.018L126.107 233.383C149.488 228.884 174.993 233.383 177.587 236.5C180.083 239.5 178.354 242.546 177.387 245C176.424 247.456 172.471 252.889 169.816 252.5C144.816 248.834 131.903 248.275 102.388 260.84C83.8902 267.908 85.3881 266.499 54.3881 272C27.9476 276.691 18.9364 273.684 4.38814 266.5C-0.673374 264 0.638138 255 1.38814 252ZM160.5 182.5C150.5 114.5 152.5 115 115 57L111.388 103.5L105.888 163.5C132.523 165.857 145.5 170.5 160.5 182.5Z" fill="#0D6EFD"/>
</svg>
